<svg width="25" height="25" viewBox="0 0 25 25" fill="none" xmlns="http://www.w3.org/2000/svg">
<path fill-rule="evenodd" clip-rule="evenodd" d="M10.7099 10.5072L10.0232 8.02323C9.37655 5.68323 9.05388 4.51256 9.60321 3.59122C10.1512 2.66855 11.3579 2.35389 13.7712 1.72722L16.3312 1.06322L16.3374 1.06161C18.7466 0.434681 19.952 0.121004 20.9032 0.653884C21.8526 1.18588 22.1766 2.35655 22.8232 4.69789L23.5086 7.18056C24.1566 9.52057 24.4792 10.6912 23.9299 11.6139C23.3806 12.5352 22.1739 12.8486 19.7606 13.4752L17.2006 14.1419L17.1882 14.1451C14.7831 14.7696 13.5789 15.0823 12.6299 14.5499C11.6802 14.0185 11.3572 12.8497 10.7119 10.5147L10.7099 10.5072ZM0.483553 3.03059C0.402609 3.13411 0.342864 3.25258 0.307735 3.37922C0.272688 3.50581 0.262925 3.63807 0.279005 3.76844C0.295085 3.89881 0.336692 4.02473 0.401449 4.13902C0.466206 4.2533 0.552845 4.35371 0.656416 4.4345C0.759987 4.51529 0.878461 4.57489 1.00507 4.60989L3.27707 5.24055C3.54536 5.3121 3.79064 5.45168 3.98918 5.64579C4.18773 5.83989 4.33282 6.08195 4.41041 6.34856L7.27975 16.7326C7.17486 16.7521 7.06953 16.7752 6.96375 16.8019C4.84374 17.3526 3.58507 19.4686 4.15308 21.5246C4.72108 23.5806 6.90108 24.8019 9.02108 24.2499C10.7904 23.7913 11.9598 22.2419 11.9678 20.5486L12.4078 20.4126L24.1904 17.3512C24.3176 17.3181 24.4369 17.2603 24.5417 17.1811C24.6465 17.1019 24.7346 17.0028 24.8011 16.8895C24.8676 16.7762 24.9111 16.651 24.9292 16.5209C24.9473 16.3908 24.9395 16.2584 24.9065 16.1312C24.8734 16.0041 24.8155 15.8848 24.7363 15.78C24.6571 15.6752 24.558 15.5871 24.4447 15.5206C24.3314 15.4541 24.2062 15.4106 24.0761 15.3925C23.946 15.3744 23.8136 15.3821 23.6864 15.4152L11.8598 18.4886L11.4464 18.6166C10.984 17.8372 10.2674 17.2407 9.41709 16.9272L9.20642 16.1979L6.33841 5.81655C6.16889 5.21653 5.84698 4.67059 5.404 4.23181C4.96101 3.79303 4.41202 3.47634 3.81041 3.31255L1.53974 2.68322C1.41314 2.64794 1.28084 2.63797 1.15039 2.65387C1.01993 2.66977 0.893895 2.71122 0.779475 2.77586C0.665055 2.8405 0.564498 2.92706 0.483553 3.03059Z" fill="#FFBB5B"/>
</svg>
