<svg width="24" height="25" viewBox="0 0 24 25" fill="none" xmlns="http://www.w3.org/2000/svg">
<path d="M6.83256 14.081V22.4871C6.83256 22.9898 6.63287 23.4719 6.27741 23.8274C5.92196 24.1828 5.43986 24.3825 4.93718 24.3825H2.70949C2.45955 24.3841 2.21176 24.3363 1.98038 24.2418C1.749 24.1473 1.53859 24.0079 1.36129 23.8318C1.18398 23.6556 1.04326 23.4461 0.947244 23.2153C0.851223 22.9846 0.801793 22.7371 0.801798 22.4871V14.081C0.800163 13.83 0.84839 13.5812 0.943682 13.349C1.03897 13.1168 1.17943 12.9059 1.3569 12.7284C1.53437 12.551 1.74533 12.4105 1.97752 12.3152C2.20971 12.2199 2.45851 12.1717 2.70949 12.1733H4.93718C5.18712 12.1733 5.4346 12.2227 5.66536 12.3188C5.89612 12.4148 6.10562 12.5555 6.28178 12.7328C6.45795 12.9101 6.5973 13.1205 6.69183 13.3519C6.78635 13.5833 6.83418 13.8311 6.83256 14.081ZM15.0787 2.29026V22.4871C15.0787 22.7371 15.0293 22.9846 14.9333 23.2153C14.8372 23.4461 14.6965 23.6556 14.5192 23.8318C14.3419 24.0079 14.1315 24.1473 13.9001 24.2418C13.6687 24.3363 13.4209 24.3841 13.171 24.3825H10.9433C10.4395 24.3825 9.95612 24.1832 9.59871 23.8281C9.2413 23.473 9.03888 22.991 9.03563 22.4871V2.29026C9.03886 1.7853 9.24088 1.30195 9.59795 0.944883C9.95501 0.587819 10.4384 0.385795 10.9433 0.382568H13.171C13.677 0.382568 14.1622 0.583556 14.5199 0.941318C14.8777 1.29908 15.0787 1.78431 15.0787 2.29026ZM23.3125 8.66563V22.4871C23.3125 22.9898 23.1128 23.4719 22.7574 23.8274C22.4019 24.1828 21.9198 24.3825 21.4171 24.3825H19.1895C18.9395 24.3841 18.6917 24.3363 18.4603 24.2418C18.229 24.1473 18.0186 24.0079 17.8413 23.8318C17.6639 23.6556 17.5232 23.4461 17.4272 23.2153C17.3312 22.9846 17.2818 22.7371 17.2818 22.4871V8.66563C17.2818 8.41511 17.3311 8.16704 17.427 7.93559C17.5229 7.70414 17.6634 7.49384 17.8405 7.31669C18.0177 7.13955 18.228 6.99903 18.4594 6.90316C18.6909 6.80729 18.9389 6.75794 19.1895 6.75794H21.4664C21.9616 6.77392 22.4312 6.98195 22.7757 7.33799C23.1203 7.69403 23.3128 8.17016 23.3125 8.66563Z" fill="#006838"/>
</svg>
